<svg xmlns="http://www.w3.org/2000/svg" xmlns:xlink="http://www.w3.org/1999/xlink" id="圖層_1" width="12" height="12" x="0" style="enable-background:new 0 0 12 12" y="0" version="1.1" viewBox="0 0 12 12" xml:space="preserve"><style type="text/css">.st0{opacity:.1}.st1{fill:#82be0f}</style><g class="st0"><circle cx="6" cy="6" r="5.5" class="st1"/><path d="M6,1c2.757,0,5,2.243,5,5s-2.243,5-5,5S1,8.757,1,6S3.243,1,6,1 M6,0C2.686,0,0,2.686,0,6s2.686,6,6,6 s6-2.686,6-6S9.314,0,6,0L6,0z" class="st1"/></g><g><path d="M6,1c2.757,0,5,2.243,5,5s-2.243,5-5,5S1,8.757,1,6S3.243,1,6,1 M6,0C2.686,0,0,2.686,0,6s2.686,6,6,6 s6-2.686,6-6S9.314,0,6,0L6,0z" class="st1"/></g></svg>